<mxfile host="app.diagrams.net" modified="2023-10-30T13:50:20.179Z" agent="Mozilla/5.0 (X11; Linux x86_64) AppleWebKit/537.36 (KHTML, like Gecko) Chrome/113.0.0.0 Safari/537.36" version="22.0.8" etag="AbCzSDZlaWdqdOdhgbJv" type="github">
  <diagram name="Page-1" id="4xJ5wzwAHt2yDEkspaRf">
    <mxGraphModel>
      <root>
        <mxCell id="0" />
        <mxCell id="1" parent="0" />
      </root>
    </mxGraphModel>
  </diagram>
</mxfile>
